<svg width="201" height="88" viewBox="0 0 201 88" fill="none" xmlns="http://www.w3.org/2000/svg">
<g clip-path="url(#clip0_8_2)">
<path d="M131.063 1.29494C130.794 1.29494 130.527 1.36144 130.258 1.49026L123.428 4.0899C122.694 4.35865 122.16 4.57405 121.826 4.7403C121.494 4.9078 121.328 5.15777 121.328 5.49027C121.328 5.95777 121.576 6.26014 122.076 6.39264C122.575 6.52514 123.145 6.70771 123.777 6.94146C124.411 7.17521 124.978 7.57638 125.478 8.14263C125.98 8.71013 126.228 9.66037 126.228 10.9941V61.2191C126.228 62.2854 126.111 63.0858 125.877 63.6195C125.644 64.152 125.294 64.5551 124.828 64.8226C124.361 65.0876 123.825 65.2878 123.227 65.4203C122.627 65.5528 121.994 65.7197 121.328 65.9222C120.796 66.0535 120.362 66.2045 120.027 66.3695C119.694 66.537 119.527 66.8539 119.527 67.3226C119.527 67.7876 119.844 68.0703 120.477 68.1703C121.11 68.2678 121.594 68.3207 121.928 68.3207C122.795 68.3207 123.915 68.2568 125.281 68.1293C126.651 68.0018 127.94 67.9359 129.15 67.9359C130.29 67.9359 131.395 68.0018 132.465 68.1293C133.537 68.2568 134.674 68.3207 135.875 68.3207C136.409 68.3207 136.924 68.2527 137.426 68.1215C137.924 67.9877 138.176 67.7233 138.176 67.3246C138.176 66.8571 137.891 66.5757 137.326 66.4769C136.76 66.3769 136.074 66.1929 135.275 65.9242C134.807 65.7942 134.323 65.5117 133.822 65.0804C133.323 64.6467 133.076 63.866 133.076 62.7347V48.5684C133.076 48.2372 133.309 48.0684 133.775 48.0684C133.975 48.0684 134.276 48.2693 134.678 48.6681L149.778 62.9331C150.51 63.6656 150.875 64.1988 150.875 64.5288C150.875 64.8626 150.693 65.1623 150.326 65.4273C149.958 65.6935 149.511 65.8596 148.975 65.9233C148.109 66.0583 147.409 66.2095 146.875 66.3745C146.343 66.542 146.078 66.8562 146.078 67.3237C146.078 67.79 146.309 68.0694 146.778 68.1694C147.244 68.2669 148.01 68.3198 149.077 68.3198C150.275 68.3198 151.475 68.2559 152.676 68.1284C153.875 68.0009 155.143 67.935 156.477 67.935C158.011 67.935 159.411 68.0009 160.678 68.1284C161.944 68.2559 163.112 68.3198 164.178 68.3198C165.912 68.3198 166.778 67.988 166.778 67.3217C166.778 66.9892 166.563 66.721 166.129 66.521C165.694 66.3223 165.112 66.0742 164.379 65.7729C163.645 65.4729 162.794 65.0888 161.827 64.6225C160.859 64.1538 159.877 63.4574 158.877 62.5249L141.576 46.8299C141.441 46.6987 141.274 46.5148 141.076 46.2811C140.875 46.0473 140.775 45.7652 140.775 45.4315C140.775 45.1652 141.642 44.4493 143.375 43.283C145.107 42.1167 147.092 40.8687 149.326 39.535C151.56 38.2025 153.725 36.9532 155.826 35.787C157.926 34.6207 159.343 33.872 160.078 33.537C160.409 33.4045 160.859 33.254 161.428 33.0878C161.994 32.9228 162.544 32.739 163.08 32.539C163.611 32.3402 164.059 32.1223 164.428 31.8885C164.794 31.6548 164.976 31.4048 164.976 31.1385C164.976 30.606 164.779 30.2711 164.379 30.1386C163.978 30.0061 163.545 29.9374 163.08 29.9374C162.077 29.9374 160.893 29.9712 159.527 30.035C158.16 30.0987 156.84 30.1326 155.576 30.1326C154.24 30.1326 152.89 30.0987 151.525 30.035C150.159 29.9712 148.942 29.9374 147.875 29.9374C147.541 29.9374 147.226 30.0394 146.926 30.2382C146.626 30.4394 146.476 30.6718 146.476 30.9393C146.476 31.3406 146.674 31.6574 147.076 31.8924C147.475 32.1249 147.909 32.3572 148.377 32.5897C148.844 32.8235 149.275 33.1246 149.678 33.4921C150.075 33.8596 150.275 34.3778 150.275 35.0428C150.275 35.3778 149.891 35.8602 149.125 36.4939C148.359 37.1264 147.41 37.8456 146.275 38.6443C145.144 39.4468 143.893 40.2794 142.525 41.1482C141.158 42.0157 139.876 42.7984 138.676 43.4997C137.476 44.2009 136.425 44.7671 135.525 45.2008C134.625 45.6346 134.108 45.8512 133.974 45.8512C133.376 45.8512 133.076 45.3171 133.076 44.2497V3.0972C133.076 2.36345 132.96 1.88048 132.723 1.64796C132.49 1.41296 132.237 1.29445 131.969 1.29445L131.063 1.29494ZM29.9725 6.1192C26.7662 6.1192 23.9125 6.21385 21.41 6.40633C18.905 6.60008 16.419 6.69732 13.949 6.69732H4.8455C4.5105 6.69732 4.12817 6.71247 3.69316 6.74622C3.25941 6.77872 2.84511 6.84733 2.44511 6.94737C2.04511 7.04862 1.69504 7.21685 1.39629 7.44935C1.09381 7.6831 0.945129 7.99856 0.945129 8.39856C0.945129 8.93231 1.1598 9.25166 1.59355 9.35166C2.0273 9.45041 2.81136 9.56683 3.94505 9.69933C4.61005 9.76683 5.32606 9.81798 6.09356 9.85169C6.86106 9.88419 7.59468 9.95217 8.29468 10.0509C8.99343 10.1509 9.57644 10.3178 10.0427 10.5528C10.5102 10.7853 10.7439 11.1342 10.7439 11.6017V58.6504C10.7439 60.1179 10.611 61.2508 10.3435 62.0508C10.0772 62.8533 9.72836 63.4673 9.29462 63.9023C8.86087 64.336 8.37791 64.6384 7.84538 64.8047C7.31163 64.9722 6.77758 65.09 6.2439 65.1562C4.71015 65.4225 3.7114 65.7562 3.2439 66.1562C2.7764 66.555 2.54467 66.9574 2.54467 67.3574C2.54467 67.8724 2.7764 68.1608 3.2439 68.2246C3.7114 68.2883 4.07599 68.3203 4.34349 68.3203C5.54349 68.3203 6.97614 68.2564 8.64239 68.1289C10.3099 68.0001 11.8788 67.9355 13.3475 67.9355H36.9825C41.255 67.9355 45.2771 67.2177 49.0509 65.7852C52.8246 64.3514 56.1124 62.4024 58.9161 59.9337C61.7186 57.4662 63.9381 54.5656 65.5744 51.2306C67.2106 47.8981 68.0295 44.3628 68.0295 40.6291C68.0295 34.6266 67.0281 29.4412 65.0256 25.0728C63.0219 20.7065 60.3004 17.1221 56.8616 14.3208C53.4229 11.5208 49.4003 9.45342 44.7953 8.11967C40.1865 6.78592 35.2477 6.1192 29.9725 6.1192ZM27.7576 9.10744C29.8314 9.10744 32.0401 9.35745 34.3826 9.85745C36.7239 10.3575 39.0334 11.1427 41.3084 12.2089C43.5834 13.2764 45.7751 14.609 47.8826 16.209C49.9889 17.809 51.8486 19.7121 53.4549 21.9121C55.0624 24.1133 56.3311 26.6141 57.2674 29.4141C58.2049 32.2141 58.6736 35.3161 58.6736 38.7148C58.6736 42.1173 58.2049 45.1358 57.2674 47.7696C56.3311 50.4021 55.0951 52.7045 53.5564 54.672C52.0164 56.6395 50.2769 58.3215 48.3356 59.7227C46.3944 61.124 44.4546 62.2404 42.5134 63.0742C40.5734 63.9079 38.6985 64.5238 36.8922 64.9238C35.0847 65.3263 33.513 65.5254 32.1755 65.5254C30.568 65.5254 28.9975 65.3263 27.4588 64.9238C25.9175 64.5238 24.5466 63.908 23.3416 63.0742C22.1366 62.2404 21.1665 61.1913 20.4315 59.9238C19.6965 58.6576 19.328 57.155 19.328 55.42V12.3087C19.328 11.9762 19.3771 11.6091 19.4784 11.2091C19.5784 10.8104 19.8953 10.4596 20.4315 10.1583C20.9665 9.85832 21.8037 9.60761 22.9412 9.40636C24.0775 9.20761 25.6826 9.10744 27.7576 9.10744ZM184.32 28.2987C181.19 28.2987 178.491 28.9676 176.228 30.3026C173.965 31.6376 172.083 33.3237 170.584 35.3612C169.085 37.3987 167.973 39.6687 167.24 42.1737C166.508 44.6774 166.141 47.0959 166.141 49.4334C166.141 55.7122 167.646 60.6685 170.66 64.3085C173.673 67.9472 177.947 69.7675 183.483 69.7675C186.083 69.7675 188.299 69.3819 190.133 68.6132C191.965 67.8444 193.481 66.9718 194.682 66.0018C195.882 65.0318 196.749 64.1273 197.281 63.2948C197.818 62.461 198.084 61.9453 198.084 61.744C198.084 61.2115 197.781 60.9452 197.182 60.9452C196.782 60.9452 196.413 61.1626 196.082 61.5976C195.747 62.0301 195.281 62.4948 194.682 62.9961C194.082 63.4973 193.249 63.9444 192.182 64.3457C191.113 64.747 189.616 64.9453 187.682 64.9453C184.614 64.9453 182.129 64.4634 180.229 63.4922C178.329 62.5234 176.864 61.2679 175.83 59.7304C174.796 58.1954 174.097 56.4242 173.731 54.4179C173.363 52.4142 173.182 50.3443 173.182 48.2031V46.0976C173.182 45.4976 173.244 45.0283 173.373 44.6933H197.706C198.572 44.6933 199.12 44.5441 199.352 44.2441C199.583 43.9441 199.702 43.3282 199.702 42.3945C199.702 41.3295 199.435 39.9952 198.901 38.3965C198.368 36.7965 197.504 35.2467 196.305 33.7479C195.106 32.2479 193.524 30.9646 191.559 29.8983C189.594 28.8308 187.183 28.2987 184.32 28.2987ZM73.1664 29.9373C72.4326 29.9373 71.8337 29.9726 71.3675 30.039C70.9 30.1065 70.6663 30.371 70.6663 30.8397C70.6663 31.1735 70.8647 31.4247 71.2659 31.5897C71.6659 31.7572 72.4676 32.006 73.6663 32.3398C74.2663 32.4735 74.9017 32.641 75.5667 32.8397C76.2329 33.0397 76.5667 33.5084 76.5667 34.2421C76.5667 35.7109 76.5503 37.3615 76.5178 39.1953C76.4853 41.029 76.4709 42.9145 76.4709 44.8495C76.4709 46.7195 76.4533 48.5855 76.4221 50.453C76.3896 52.323 76.3752 54.0227 76.3752 55.5565C76.3752 57.6927 76.5565 59.6294 76.924 61.3631C77.2915 63.0969 77.9231 64.597 78.8244 65.867C79.7256 67.1345 80.9593 68.098 82.5255 68.7655C84.093 69.4317 86.0453 69.7675 88.379 69.7675C90.3815 69.7675 92.165 69.4544 93.7325 68.8319C95.3 68.2094 96.6665 67.5162 97.834 66.7499C99.0003 65.9837 99.9519 65.2992 100.686 64.6992C101.419 64.1004 101.986 63.7988 102.387 63.7988C102.854 63.7988 103.086 64.1992 103.086 64.998V67.2987C103.086 67.7662 103.117 68.1479 103.184 68.4491C103.247 68.7504 103.474 68.8984 103.861 68.8984C104.333 68.8984 105.578 68.7022 107.598 68.3085C109.618 67.9135 112.393 67.452 115.928 66.9258C116.66 66.792 117.179 66.663 117.479 66.5293C117.776 66.3993 117.93 66.1352 117.93 65.7402C117.93 65.214 117.544 64.9185 116.777 64.8535C116.01 64.786 114.66 64.752 112.727 64.752C112.26 64.752 111.709 64.6223 111.076 64.3536C110.441 64.0873 110.127 63.4203 110.127 62.3515C110.127 57.2828 110.19 52.2323 110.32 47.1978C110.448 42.1616 110.514 37.1083 110.514 32.039C110.514 31.1065 110.246 30.524 109.707 30.289C109.173 30.0553 108.738 29.9375 108.404 29.9375C107.398 29.9375 106.412 29.9714 105.439 30.0351C104.469 30.0989 103.482 30.1309 102.481 30.1309C101.613 30.1309 100.762 30.0989 99.9297 30.0351C99.0947 29.9714 98.2459 29.9375 97.3809 29.9375C96.8471 29.9375 96.3464 29.9899 95.8789 30.0898C95.4126 30.1898 95.1797 30.4045 95.1797 30.7383C95.1797 31.1383 95.5625 31.4708 96.33 31.7383C97.0963 32.0045 97.6801 32.2061 98.0801 32.3398C99.2801 32.6736 100.214 32.9236 100.879 33.0898C101.545 33.2573 102.062 33.4066 102.43 33.5391C102.796 33.6716 103.031 33.8385 103.131 34.041C103.23 34.2397 103.281 34.474 103.281 34.7402C103.281 38.3402 103.247 41.907 103.184 45.4395C103.117 48.9745 103.086 52.5409 103.086 56.1446C103.086 57.1434 102.969 58.1799 102.736 59.2461C102.505 60.3136 101.988 61.262 101.19 62.0957C100.392 62.9282 99.2084 63.6108 97.6447 64.1446C96.0809 64.6796 93.9013 64.9473 91.1075 64.9473C88.645 64.9473 86.714 64.395 85.3165 63.295C83.9178 62.195 83.2208 60.6125 83.2208 58.545C83.2208 54.0775 83.2522 49.6272 83.3184 45.1937C83.3809 40.7587 83.4121 36.3082 83.4121 31.8387C83.4121 31.1074 83.3297 30.6082 83.1622 30.3407C82.9934 30.0732 82.5736 29.9384 81.9024 29.9384C81.1649 29.9384 80.4263 29.9722 79.6875 30.036C78.95 30.0997 78.2114 30.1317 77.4726 30.1317C76.7351 30.1317 76.0151 30.0997 75.3164 30.036C74.6176 29.9722 73.8989 29.9373 73.1664 29.9373ZM185.743 30.7088C187.876 30.7088 189.642 31.2926 191.043 32.4588C192.442 33.6251 193.143 35.0727 193.143 36.8065C193.143 37.7402 193.028 38.5053 192.791 39.1053C192.559 39.7053 192.077 40.2034 191.344 40.6033C190.61 41.0033 189.575 41.2886 188.243 41.4549C186.909 41.6224 185.142 41.7049 182.942 41.7049C180.808 41.7049 179.157 41.6866 177.991 41.6541C176.824 41.6216 175.957 41.5713 175.391 41.5038C174.825 41.4388 174.489 41.3537 174.389 41.2537C174.292 41.155 174.241 41.0045 174.241 40.8045C174.241 40.0058 174.508 39.0398 175.041 37.906C175.574 36.7735 176.323 35.6734 177.291 34.6071C178.259 33.5421 179.459 32.6266 180.893 31.8591C182.325 31.0941 183.943 30.7088 185.743 30.7088ZM134.483 75.7826C132.478 75.7826 130.893 76.9333 130.893 78.8158C130.893 80.7608 131.995 81.3352 134.297 82.0189C136.116 82.5639 136.754 82.9836 136.754 83.8237C136.754 84.8825 136.024 85.4097 134.5 85.4097C133.474 85.4097 132.399 84.9124 131.668 84.1187L130.504 85.2535C131.419 86.3272 132.789 87.0112 134.375 87.0112C137.159 87.0112 138.401 85.6731 138.401 83.7143C138.401 81.7706 137.065 81.0856 134.916 80.4331C133.036 79.8743 132.539 79.5003 132.539 78.7378C132.539 78.0078 133.083 77.3843 134.359 77.3843C135.432 77.3843 136.209 77.7273 136.893 78.4273L138.045 77.2593C137.081 76.3268 135.959 75.7826 134.483 75.7826ZM7.98264 75.9525V82.2689C7.98264 85.2689 9.38249 87.0111 12.0725 87.0111C14.7787 87.0111 16.2561 85.3489 16.2561 82.3001V75.9525H14.6214V82.3314C14.6214 84.3214 13.8138 85.3763 12.1038 85.3763C10.47 85.3763 9.61552 84.2738 9.61552 82.22V75.9524L7.98264 75.9525ZM51.9614 75.9525V86.8393H53.5941V75.9525H51.9614ZM151.803 75.9525V86.8393H153.435V75.9525H151.803ZM186.775 75.9525L190.679 82.5326V86.8393H192.314V82.5326L196.214 75.9525H194.334L192.623 78.9701C192.235 79.6714 191.69 80.7141 191.503 81.1166C191.316 80.7141 190.758 79.6252 190.384 78.9565L188.689 75.9526L186.775 75.9525ZM29.9001 75.955V86.8398H31.4841V81.1953C31.4841 80.589 31.4705 79.0795 31.4705 78.6757C31.6405 78.9557 32.0153 79.6099 32.2791 80.0136L36.617 86.8398H38.1736V75.955H36.5857V81.5683C36.5857 82.1758 36.6034 83.7296 36.6034 84.1346C36.4471 83.8546 35.981 83.0468 35.701 82.5956L31.5643 75.955H29.9001ZM66.7101 75.955L70.4875 86.8398H72.214L75.9464 75.955H74.2061L71.9659 82.8749C71.7634 83.5124 71.451 84.4914 71.3585 84.8826C71.2647 84.4914 70.9542 83.5279 70.753 82.8904L68.4815 75.9549L66.7101 75.955ZM88.9776 75.955V86.8398H96.2256V85.2538H90.6124V81.8182H93.7374V80.2322H90.6124V77.5409H95.9912V75.9549L88.9776 75.955ZM109.429 75.955V86.8398H111.031V82.5331H113.488L115.648 86.8398H117.532L115.308 82.3925C116.785 82.0188 117.702 80.9462 117.702 79.205C117.702 76.9637 116.102 75.955 114.204 75.955H109.429ZM166.55 75.955V77.5565H169.722V86.8398H171.355V77.5565H174.527V75.955H166.55ZM111.03 77.494H114.204C115.308 77.494 116.054 78.1168 116.054 79.2518C116.054 80.4343 115.293 80.994 114.204 80.994H111.03V77.494Z" fill="white"/>
</g>
<defs>
<clipPath id="clip0_8_2">
<rect width="200.758" height="87.7156" fill="white"/>
</clipPath>
</defs>
</svg>
