<svg width="86" height="18" viewBox="0 0 86 18" fill="none" xmlns="http://www.w3.org/2000/svg">
<path fill-rule="evenodd" clip-rule="evenodd" d="M3.22214 16.7813C4.18627 17.2332 5.35377 17.4592 6.72463 17.4592C8.02018 17.4592 9.15754 17.2407 10.1367 16.8039C11.1159 16.367 11.8767 15.7569 12.419 14.9735C12.9613 14.1902 13.2325 13.2939 13.2325 12.2845C13.2325 11.3957 13.0065 10.635 12.5546 10.0023C12.1177 9.3545 11.485 8.84231 10.6565 8.4657C9.84298 8.07402 8.87132 7.83299 7.74148 7.7426L5.91115 7.58443C4.99222 7.50911 4.29925 7.23795 3.83225 6.77095C3.36526 6.30395 3.13176 5.76916 3.13176 5.16658C3.13176 4.63932 3.25981 4.14973 3.5159 3.6978C3.78706 3.2308 4.18627 2.85419 4.71353 2.56796C5.25585 2.28174 5.93375 2.13862 6.74723 2.13862C7.59084 2.13862 8.27627 2.28927 8.80353 2.59056C9.33079 2.89185 9.71493 3.27599 9.95596 3.74299C10.2121 4.20999 10.3401 4.70712 10.3401 5.23437H12.5546C12.5546 4.17986 12.306 3.27599 11.8089 2.52277C11.3268 1.75448 10.6489 1.15943 9.77519 0.737627C8.90145 0.315822 7.89213 0.104919 6.74723 0.104919C5.58727 0.104919 4.57041 0.323355 3.69667 0.760225C2.82294 1.18203 2.1375 1.76954 1.64038 2.52277C1.15831 3.27599 0.917281 4.15726 0.917281 5.16658C0.917281 6.44706 1.35415 7.47898 2.22789 8.26233C3.10163 9.04568 4.26912 9.49761 5.73038 9.61813L7.56071 9.77631C8.69055 9.88176 9.54922 10.1605 10.1367 10.6124C10.7242 11.0493 11.018 11.6066 11.018 12.2845C11.018 12.8419 10.8674 13.3617 10.5661 13.8437C10.2648 14.3107 9.79778 14.6949 9.16508 14.9961C8.53237 15.2824 7.71889 15.4255 6.72463 15.4255C5.65506 15.4255 4.80391 15.2598 4.17121 14.9284C3.55356 14.5969 3.10916 14.1827 2.838 13.6855C2.5819 13.1884 2.45386 12.6913 2.45386 12.1942H0.23938C0.23938 13.2035 0.495476 14.1073 1.00767 14.9058C1.51986 15.7042 2.25802 16.3293 3.22214 16.7813ZM51.5155 6.70317V17.0525H53.6848V6.70317V4.98582H51.5155H49.6626V6.70317H51.5155ZM51.041 2.65836C51.282 2.91446 51.6436 3.04251 52.1256 3.04251C52.6077 3.04251 52.9617 2.91446 53.1877 2.65836C53.4287 2.40227 53.5492 2.07838 53.5492 1.6867C53.5492 1.29503 53.4287 0.971141 53.1877 0.715045C52.9617 0.45895 52.6077 0.330902 52.1256 0.330902C51.6436 0.330902 51.282 0.45895 51.041 0.715045C50.815 0.971141 50.702 1.29503 50.702 1.6867C50.702 2.07838 50.815 2.40227 51.041 2.65836ZM83.5932 2.2742V17.0524H85.7625V2.2742V0.556854H83.5932H81.921V2.2742H83.5932ZM72.9206 16.9169C73.6889 17.2784 74.6003 17.4592 75.6548 17.4592C76.6038 17.4592 77.455 17.301 78.2082 16.9847C78.9614 16.6683 79.5866 16.2088 80.0837 15.6063C80.5809 15.0037 80.9123 14.2881 81.078 13.4596H79.0443C78.9238 14.017 78.5622 14.5066 77.9596 14.9284C77.3721 15.3502 76.6038 15.5611 75.6548 15.5611C74.7509 15.5611 74.0052 15.3652 73.4177 14.9736C72.8302 14.5668 72.3933 14.0245 72.1071 13.3466C71.8794 12.7648 71.7473 12.1245 71.7108 11.4259H81.2814V10.4542C81.2814 9.44489 81.0705 8.49583 80.6487 7.60703C80.2419 6.71823 79.6092 5.99513 78.7505 5.43775C77.9069 4.8653 76.8298 4.57907 75.5192 4.57907C74.5099 4.57907 73.6286 4.75985 72.8754 5.12139C72.1372 5.46788 71.5271 5.94241 71.0451 6.54498C70.563 7.1325 70.2014 7.79534 69.9604 8.53349C69.7344 9.27165 69.6215 10.0324 69.6215 10.8158V11.2225C69.6215 11.9908 69.7344 12.744 69.9604 13.4822C70.2014 14.2203 70.563 14.8907 71.0451 15.4933C71.5271 16.0808 72.1523 16.5553 72.9206 16.9169ZM71.7963 9.79891C71.864 9.39439 71.9676 9.01778 72.1071 8.66907C72.3933 7.99117 72.8151 7.45639 73.3725 7.06471C73.945 6.67303 74.6605 6.47719 75.5192 6.47719C76.3477 6.47719 77.0332 6.65044 77.5755 6.99692C78.1178 7.3434 78.5246 7.833 78.7957 8.4657C78.9692 8.86079 79.0872 9.30519 79.1497 9.79891H71.7963ZM56.9753 17.0525V4.98581H58.6927V7.78439C58.7511 7.56341 58.8188 7.35364 58.8961 7.1551C59.2275 6.32655 59.7246 5.70138 60.3874 5.27957C61.0503 4.8427 61.8864 4.62427 62.8957 4.62427H62.9861C64.5076 4.62427 65.6299 5.0988 66.353 6.04786C67.0911 6.99692 67.4602 8.36779 67.4602 10.1605V17.0525H65.2909V9.70852C65.2909 8.77453 65.0273 8.02884 64.5 7.47145C63.9728 6.899 63.2497 6.61278 62.3308 6.61278C61.3817 6.61278 60.6134 6.90653 60.0259 7.49405C59.4384 8.08156 59.1446 8.86491 59.1446 9.8441V17.0525H56.9753ZM46.9108 17.188C46.0069 17.188 45.2236 17.06 44.5607 16.8039C43.9129 16.5478 43.4083 16.1109 43.0467 15.4933C42.7003 14.8606 42.527 14.0094 42.527 12.9399V6.61279H40.4481V4.98583H42.527V1.32516H44.6059V4.98583H48.7637V6.61279H44.6059V13.211C44.6059 13.8588 44.7792 14.3635 45.1256 14.725C45.4872 15.0715 45.9918 15.2447 46.6396 15.2447H48.7637V17.188H46.9108ZM28.6606 4.98581V17.0525H30.8299V9.8441C30.8299 8.86491 31.1237 8.08156 31.7112 7.49405C32.2987 6.90653 33.067 6.61278 34.0161 6.61278C34.935 6.61278 35.6581 6.899 36.1853 7.47145C36.7126 8.02884 36.9762 8.77453 36.9762 9.70852V17.0525H39.1455V10.1605C39.1455 8.36779 38.7764 6.99692 38.0383 6.04786C37.3152 5.0988 36.1929 4.62427 34.6714 4.62427H34.581C33.5717 4.62427 32.7356 4.8427 32.0727 5.27957C31.4099 5.70138 30.9128 6.32655 30.5814 7.1551C30.5042 7.35365 30.4364 7.56341 30.378 7.7844V4.98581H28.6606ZM20.8579 17.4592C19.8034 17.4592 18.892 17.2784 18.1237 16.9169C17.3554 16.5553 16.7302 16.0808 16.2482 15.4933C15.7661 14.8907 15.4046 14.2203 15.1635 13.4822C14.9376 12.744 14.8246 11.9908 14.8246 11.2225V10.8158C14.8246 10.0324 14.9376 9.27165 15.1635 8.53349C15.4046 7.79534 15.7661 7.1325 16.2482 6.54498C16.7302 5.94241 17.3404 5.46788 18.0785 5.12139C18.8317 4.75985 19.713 4.57907 20.7223 4.57907C22.0329 4.57907 23.11 4.8653 23.9537 5.43775C24.8123 5.99513 25.445 6.71823 25.8518 7.60703C26.2736 8.49583 26.4845 9.44489 26.4845 10.4542V11.4259H16.9139C16.9505 12.1245 17.0825 12.7648 17.3102 13.3466C17.5964 14.0245 18.0333 14.5668 18.6208 14.9736C19.2083 15.3652 19.954 15.5611 20.8579 15.5611C21.807 15.5611 22.5753 15.3502 23.1628 14.9284C23.7653 14.5066 24.1269 14.017 24.2474 13.4596H26.2811C26.1154 14.2881 25.784 15.0037 25.2869 15.6063C24.7897 16.2088 24.1646 16.6683 23.4113 16.9847C22.6581 17.301 21.807 17.4592 20.8579 17.4592ZM17.3102 8.66907C17.1707 9.01778 17.0671 9.39439 16.9994 9.79891H24.3528C24.2903 9.30519 24.1723 8.86079 23.9988 8.4657C23.7277 7.833 23.3209 7.3434 22.7786 6.99692C22.2363 6.65044 21.5509 6.47719 20.7223 6.47719C19.8636 6.47719 19.1481 6.67303 18.5756 7.06471C18.0183 7.45639 17.5964 7.99117 17.3102 8.66907Z" fill="url(#paint0_linear_31_138)"/>
<defs>
<linearGradient id="paint0_linear_31_138" x1="50.7695" y1="24.5582" x2="50.7695" y2="1.38679" gradientUnits="userSpaceOnUse">
<stop stop-color="#6633A2"/>
<stop offset="1" stop-color="#B37CF4"/>
</linearGradient>
</defs>
</svg>
